<?xml version="1.0" ?><svg xmlns="http://www.w3.org/2000/svg" width="24" height="24" viewBox="0 0 24 24" fill="none"><g id="star-8-outline" clip-path="url(#clip0_1701_1270)"><g id="outline" filter="url(#filter0_d_1701_1270)"><path d="M15.2427 4C14.9775 4 14.7231 3.89464 14.5356 3.7071L12.7072 1.87868C12.3166 1.48815 11.6835 1.48815 11.293 1.87868L9.46452 3.7071C9.27699 3.89464 9.02263 4 8.75742 4H5.00006C4.44777 4 4.00006 4.44771 4.00006 5V8.75736C4.00006 9.02257 3.8947 9.27693 3.70716 9.46446L1.87874 11.2929C1.48821 11.6834 1.48821 12.3166 1.87874 12.7071L3.70716 14.5355C3.8947 14.7231 4.00006 14.9774 4.00006 15.2426V19C4.00006 19.5523 4.44777 20 5.00006 20H8.75742C9.02263 20 9.27699 20.1054 9.46452 20.2929L11.293 22.1213C11.6835 22.5118 12.3166 22.5118 12.7072 22.1213L14.5356 20.2929C14.7231 20.1054 14.9775 20 15.2427 20H19.0001C19.5523 20 20.0001 19.5523 20.0001 19V15.2426C20.0001 14.9774 20.1054 14.7231 20.2929 14.5355L22.1214 12.7071C22.5119 12.3166 22.5119 11.6834 22.1214 11.2929L20.2929 9.46446C20.1054 9.27693 20.0001 9.02257 20.0001 8.75736V5C20.0001 4.44771 19.5523 4 19.0001 4H15.2427Z" fill="white"/></g><path id="icon" fill-rule="evenodd" clip-rule="evenodd" d="M13.1716 8L12 6.82843L10.8284 8H8V10.8284L6.82843 12L8 13.1716V16H10.8284L12 17.1716L13.1716 16H16V13.1716L17.1716 12L16 10.8284V8H13.1716ZM18 6V10L20 12L18 14V18H14L12 20L10 18H6V14L4 12L6 10V6H10L12 4L14 6H18Z" fill="#3D6629"/></g><defs><filter id="filter0_d_1701_1270" x="-0.414185" y="0.0857849" width="24.8285" height="24.8284" filterUnits="userSpaceOnUse" color-interpolation-filters="sRGB"><feFlood flood-opacity="0" result="BackgroundImageFix"/><feColorMatrix in="SourceAlpha" type="matrix" values="0 0 0 0 0 0 0 0 0 0 0 0 0 0 0 0 0 0 127 0" result="hardAlpha"/><feOffset dy="0.5"/><feGaussianBlur stdDeviation="1"/><feComposite in2="hardAlpha" operator="out"/><feColorMatrix type="matrix" values="0 0 0 0 0 0 0 0 0 0 0 0 0 0 0 0 0 0 0.25 0"/><feBlend mode="normal" in2="BackgroundImageFix" result="effect1_dropShadow_1701_1270"/><feBlend mode="normal" in="SourceGraphic" in2="effect1_dropShadow_1701_1270" result="shape"/></filter><clipPath id="clip0_1701_1270"><rect width="24" height="24" fill="white"/></clipPath></defs></svg>